<svg version="1.1" id="Layer_1" xmlns="http://www.w3.org/2000/svg" xmlns:xlink="http://www.w3.org/1999/xlink" x="0px" y="0px"
	 width="100%" viewBox="0 0 512 512" enable-background="new 0 0 512 512" xml:space="preserve">
<path fill="#000000" opacity="1.000000" stroke="none" 
	d="
M513.000000,185.000000 
	C513.000000,294.640015 513.000000,403.780029 513.000000,512.960022 
	C342.401642,512.960022 171.803268,512.960022 1.102453,512.960022 
	C1.102453,342.443359 1.102453,171.886612 1.102453,1.164938 
	C171.666534,1.164938 342.333252,1.164938 513.000000,1.164938 
	C513.000000,62.196690 513.000000,123.348343 513.000000,185.000000 
M419.014526,270.082275 
	C419.012512,268.765228 419.045563,267.447083 419.002869,266.131348 
	C418.725952,257.596466 410.257996,248.085419 402.001343,246.296326 
	C399.209503,236.549011 390.777679,230.051208 380.869934,230.017761 
	C374.562073,229.996475 368.254211,229.982391 362.003235,229.035721 
	C362.004974,175.124054 361.888123,121.211891 362.111725,67.301140 
	C362.154785,56.918800 358.614288,49.802383 346.000885,50.058224 
	C345.908234,39.587906 341.851288,35.020424 332.591003,35.019699 
	C266.946777,35.014565 201.302475,34.992832 135.658478,35.121040 
	C133.446411,35.125359 130.639359,36.063820 129.114655,37.578522 
	C94.128448,72.335381 59.267586,107.218575 24.468330,142.162842 
	C23.210484,143.425919 22.136112,145.542877 22.122232,147.271118 
	C21.960348,167.429581 21.918135,187.591217 22.193256,207.747238 
	C22.217529,209.525528 24.696037,211.270309 26.000458,213.921783 
	C26.016973,216.602005 26.033489,219.282211 25.245789,222.005829 
	C24.170542,223.404617 22.188679,224.786148 22.161680,226.204910 
	C21.918169,239.001556 21.981281,251.804886 22.047031,264.605804 
	C22.059841,267.099670 22.831953,269.265411 26.001675,269.927826 
	C25.959473,272.609558 25.917271,275.291321 25.257885,278.341614 
	C24.177731,280.715546 22.162331,283.086456 22.154638,285.463867 
	C21.976904,340.394012 22.009502,395.324860 22.052437,450.255554 
	C22.053825,452.031342 22.305321,453.902985 22.899778,455.565643 
	C25.509254,462.864044 31.664284,463.218689 38.001270,463.903595 
	C36.795818,473.622894 42.606728,479.185181 53.286873,479.165527 
	C188.536423,478.916565 323.786682,478.932373 459.036407,479.123718 
	C470.798615,479.140381 480.121246,470.224091 480.055267,458.035400 
	C479.892059,427.888184 480.022461,397.739502 479.966949,367.591492 
	C479.961884,364.838379 480.355682,363.032806 483.038177,361.154602 
	C488.221222,357.525635 491.897156,352.360443 491.962769,345.628143 
	C492.094177,332.137695 492.030914,318.645050 491.989594,305.153473 
	C491.968811,298.364105 484.859314,287.965424 475.982910,287.085846 
	C470.926208,274.422913 465.834198,271.023651 451.958893,271.014465 
	C440.997528,271.007202 430.036194,270.980865 419.014526,270.082275 
z"/>
<path fill="#FDD6E4" opacity="1.000000" stroke="none" 
	d="
M25.875067,277.973053 
	C25.917271,275.291321 25.959473,272.609558 26.414333,269.438293 
	C27.979431,267.369537 30.095074,265.812103 30.131327,264.207672 
	C30.411566,251.805710 30.284664,239.394638 30.295942,226.986404 
	C30.298571,224.094421 29.132971,222.227890 26.050005,221.962433 
	C26.033489,219.282211 26.016973,216.602005 26.400789,213.414032 
	C30.142191,212.024506 30.339924,209.445389 30.330603,206.622223 
	C30.289343,194.126526 30.313784,181.630600 30.314259,169.134766 
	C30.314484,163.172318 30.314295,157.209869 30.314295,150.604675 
	C32.595383,150.604675 34.369858,150.604675 36.144337,150.604675 
	C64.801468,150.604660 93.458611,150.614166 122.115738,150.599960 
	C133.662094,150.594238 137.869965,146.424332 137.873230,135.023972 
	C137.881470,106.200226 137.876053,77.376480 137.876114,48.552731 
	C137.876129,46.809471 137.876114,45.066216 137.876114,43.085529 
	C140.316986,43.085529 141.966293,43.085526 143.615601,43.085526 
	C205.428375,43.085541 267.241150,43.084766 329.053925,43.086563 
	C336.952301,43.086792 337.323517,43.443760 337.324066,51.190022 
	C337.328003,109.004120 337.326294,166.818222 337.326324,224.632324 
	C337.326324,226.254044 337.326324,227.875778 337.326324,229.992035 
	C329.747437,229.992035 322.593750,230.418060 315.505493,229.917343 
	C286.721069,227.884018 278.484955,240.606567 280.305756,264.949188 
	C280.461212,267.027496 280.326355,269.127563 280.326355,271.509979 
	C277.699493,271.509979 275.879303,271.509796 274.059113,271.510010 
	C258.897491,271.511841 243.734543,271.390350 228.574692,271.554779 
	C216.564362,271.685059 208.076385,279.379578 207.810226,290.648895 
	C207.507431,303.469666 207.682663,316.304077 207.793488,329.131317 
	C207.850952,335.781006 210.904526,341.112396 216.430206,344.597321 
	C219.279175,346.394104 219.927170,348.386414 219.912079,351.473877 
	C219.802078,373.965881 219.585770,396.463074 219.961182,418.949341 
	C220.160568,430.891907 217.566711,443.112366 223.066727,454.914459 
	C220.907104,454.914459 219.246490,454.914429 217.585876,454.914429 
	C158.105667,454.914429 98.625450,454.915009 39.145233,454.913818 
	C30.846334,454.913635 30.317768,454.397552 30.317402,446.237946 
	C30.315022,392.922333 30.281532,339.606689 30.388058,286.291290 
	C30.395773,282.429718 29.629196,279.531769 25.875067,277.973053 
M256.499969,190.774124 
	C273.830139,190.774109 291.160339,190.781326 308.490509,190.761230 
	C309.980072,190.759506 311.757233,191.046799 312.884521,190.356583 
	C314.230164,189.532654 315.852905,187.772171 315.809875,186.468384 
	C315.768555,185.217270 313.898743,183.811371 312.545746,182.898331 
	C311.716553,182.338745 310.347809,182.578705 308.620911,182.396133 
	C308.620911,180.455032 308.620941,178.676254 308.620941,176.897476 
	C308.620850,155.901169 308.641510,134.904846 308.606720,113.908600 
	C308.597382,108.272865 307.454803,107.158737 301.904205,107.118797 
	C295.905579,107.075630 289.906311,107.091560 283.907471,107.112976 
	C277.437531,107.136078 276.709076,107.843513 276.703735,114.294975 
	C276.686523,135.124619 276.697113,155.954285 276.696960,176.783951 
	C276.696960,178.571259 276.696960,180.358551 276.696960,182.351685 
	C273.603516,182.351685 271.076904,182.351685 268.186920,182.351685 
	C268.186920,169.828674 268.202301,157.689255 268.180420,145.549911 
	C268.169403,139.445938 267.554138,138.790024 261.733398,138.750763 
	C255.234833,138.706940 248.732941,138.859573 242.237915,138.702713 
	C237.980850,138.599899 236.149841,140.419693 236.205917,144.646057 
	C236.307617,152.310013 236.232742,159.976303 236.232010,167.641617 
	C236.231552,172.561737 236.231918,177.481857 236.231918,182.376877 
	C233.050949,182.376877 230.655106,182.376877 227.998016,182.376877 
	C227.998016,165.198395 227.916611,148.379959 228.052475,131.563278 
	C228.088669,127.085403 226.309219,125.127739 221.864029,125.200623 
	C215.533508,125.304428 209.199753,125.190369 202.867874,125.236595 
	C197.022293,125.279282 196.023453,126.329124 196.016937,132.353516 
	C196.000748,147.350861 196.011322,162.348221 196.011154,177.345581 
	C196.011139,179.084015 196.011154,180.822449 196.011154,182.469009 
	C192.880692,182.469009 190.603180,182.469009 187.783768,182.469009 
	C187.783768,175.089645 187.758667,167.968460 187.793686,160.847580 
	C187.813019,156.915421 185.981537,155.045609 181.998932,155.090607 
	C175.334290,155.165909 168.665726,155.219360 162.003540,155.070328 
	C157.556107,154.970810 155.645325,156.780853 155.778900,161.318405 
	C155.983444,168.266037 155.832596,175.224136 155.832596,182.259064 
	C154.704865,182.480988 154.075439,182.722107 153.452026,182.707458 
	C150.608612,182.640732 148.177322,183.557465 148.256027,186.695938 
	C148.341782,190.115189 151.114380,190.779434 154.017853,190.772476 
	C155.017670,190.770096 156.017502,190.774017 157.017319,190.774017 
	C189.844864,190.774094 222.672409,190.774063 256.499969,190.774124 
M180.179108,311.652466 
	C188.024796,298.668365 191.509644,284.683075 189.121338,269.598297 
	C184.827393,242.477478 169.266037,224.624329 143.231552,216.528503 
	C118.922218,208.969177 91.463570,217.875198 76.007057,238.000504 
	C59.180702,259.909393 56.682644,283.886292 69.564034,308.230896 
	C91.923790,350.488739 151.982758,354.636810 180.179108,311.652466 
M183.719330,125.778290 
	C182.563477,123.068230 183.525452,121.242538 185.734604,119.392952 
	C191.094711,114.905258 196.315277,110.239182 201.412247,105.453445 
	C204.271713,102.768578 206.906555,100.409622 211.291809,102.053589 
	C212.540283,102.521622 214.667603,102.377892 215.626068,101.586815 
	C219.763657,98.171783 223.297211,100.425682 226.986694,102.253212 
	C229.666992,103.580856 232.318253,105.003296 235.099472,106.081680 
	C238.410736,107.365562 240.254639,109.176979 240.820465,113.064804 
	C241.702438,119.124855 247.162628,122.884621 253.062332,122.475945 
	C259.010712,122.063896 264.648285,117.311974 263.868073,111.604759 
	C263.020966,105.408073 266.386169,102.618462 270.174591,99.423180 
	C273.228638,96.847313 276.150604,94.115486 279.176666,91.505623 
	C283.178406,88.054260 286.568115,83.095131 293.134705,85.748497 
	C293.655426,85.958916 294.431671,85.584496 295.077179,85.431343 
	C301.412476,83.928123 305.317108,78.298607 304.360504,72.063049 
	C303.358673,65.532959 297.805206,61.285305 291.148163,61.957462 
	C284.938110,62.584496 280.155121,67.931023 280.894531,74.417122 
	C281.314240,78.098717 280.198395,80.207962 277.495453,82.374985 
	C273.083466,85.912193 268.985535,89.839783 264.730591,93.574738 
	C261.077240,96.781616 257.841614,100.975655 251.920288,98.769844 
	C251.091064,98.460945 249.680847,98.605682 249.017075,99.136993 
	C244.491547,102.759407 240.671082,99.925499 236.714035,98.022820 
	C233.568710,96.510460 230.243179,95.288803 227.322464,93.428215 
	C225.819870,92.471024 224.400970,90.537376 224.022858,88.809013 
	C222.528900,81.980118 216.783020,77.423645 210.365234,78.457611 
	C203.459717,79.570160 199.420395,85.398521 200.108948,92.626678 
	C200.257996,94.191284 199.390335,96.361145 198.235748,97.455200 
	C192.678375,102.721100 186.790054,107.636055 181.174286,112.842819 
	C178.972733,114.884026 177.052078,115.704735 173.815903,115.002548 
	C166.820633,113.484711 160.576614,118.360428 159.917740,125.141151 
	C159.232620,132.191833 164.109924,138.048447 171.023346,138.476669 
	C177.710159,138.890854 182.317047,134.580795 183.719330,125.778290 
M118.499832,368.527710 
	C137.631790,368.526672 156.763733,368.525421 175.895691,368.524841 
	C178.869873,368.524750 182.025818,368.332764 181.970047,364.403748 
	C181.914551,360.494965 178.702560,360.406464 175.769379,360.364105 
	C175.603043,360.361694 175.436646,360.363129 175.270279,360.363129 
	C142.330048,360.363495 109.389801,360.360229 76.449570,360.377563 
	C75.129456,360.378265 73.481422,360.123322 72.568047,360.787567 
	C71.272202,361.730011 69.844284,363.371735 69.749512,364.799347 
	C69.676826,365.894318 71.374496,367.520569 72.659264,368.172333 
	C73.877266,368.790161 75.582207,368.515289 77.073174,368.517273 
	C90.548706,368.535065 104.024261,368.527435 118.499832,368.527710 
M84.524025,387.159821 
	C81.031311,387.168640 77.446342,386.712402 74.084167,387.379333 
	C72.361328,387.721039 71.036858,390.071014 69.532349,391.513397 
	C71.028366,392.737701 72.404587,394.178619 74.068649,395.099121 
	C74.961372,395.592896 76.348961,395.194641 77.513237,395.194641 
	C109.447975,395.195099 141.382706,395.195129 173.317444,395.194672 
	C174.648041,395.194641 176.219238,395.639679 177.255615,395.086060 
	C179.026215,394.140228 180.461502,392.566711 182.037628,391.256836 
	C180.468063,389.897675 179.046127,388.274963 177.271896,387.281189 
	C176.256302,386.712402 174.667877,387.160645 173.337357,387.160583 
	C144.063843,387.159515 114.790337,387.159821 84.524025,387.159821 
M150.500000,414.070068 
	C125.510345,414.070251 100.520683,414.079407 75.531044,414.058319 
	C72.672638,414.055878 69.857857,414.328400 69.698517,417.907837 
	C69.538239,421.508484 72.189827,422.093811 75.152359,422.092163 
	C108.971718,422.073334 142.791473,422.138916 176.609390,421.917328 
	C178.423218,421.905426 181.480743,419.770142 181.769943,418.215942 
	C182.408630,414.783508 179.455963,414.049255 176.489639,414.060669 
	C168.159866,414.092712 159.829895,414.070740 150.500000,414.070068 
z"/>
<path fill="#3E3164" opacity="1.000000" stroke="none" 
	d="
M25.566475,278.157349 
	C29.629196,279.531769 30.395773,282.429718 30.388058,286.291290 
	C30.281532,339.606689 30.315022,392.922333 30.317402,446.237946 
	C30.317768,454.397552 30.846334,454.913635 39.145233,454.913818 
	C98.625450,454.915009 158.105667,454.914429 217.585876,454.914429 
	C219.246490,454.914429 220.907104,454.914459 223.066727,454.914459 
	C217.566711,443.112366 220.160568,430.891907 219.961182,418.949341 
	C219.585770,396.463074 219.802078,373.965881 219.912079,351.473877 
	C219.927170,348.386414 219.279175,346.394104 216.430206,344.597321 
	C210.904526,341.112396 207.850952,335.781006 207.793488,329.131317 
	C207.682663,316.304077 207.507431,303.469666 207.810226,290.648895 
	C208.076385,279.379578 216.564362,271.685059 228.574692,271.554779 
	C243.734543,271.390350 258.897491,271.511841 274.059113,271.510010 
	C275.879303,271.509796 277.699493,271.509979 280.326355,271.509979 
	C280.326355,269.127563 280.461212,267.027496 280.305756,264.949188 
	C278.484955,240.606567 286.721069,227.884018 315.505493,229.917343 
	C322.593750,230.418060 329.747437,229.992035 337.326324,229.992035 
	C337.326324,227.875778 337.326324,226.254044 337.326324,224.632324 
	C337.326294,166.818222 337.328003,109.004120 337.324066,51.190022 
	C337.323517,43.443760 336.952301,43.086792 329.053925,43.086563 
	C267.241150,43.084766 205.428375,43.085541 143.615601,43.085526 
	C141.966293,43.085526 140.316986,43.085529 137.876114,43.085529 
	C137.876114,45.066216 137.876129,46.809471 137.876114,48.552731 
	C137.876053,77.376480 137.881470,106.200226 137.873230,135.023972 
	C137.869965,146.424332 133.662094,150.594238 122.115738,150.599960 
	C93.458611,150.614166 64.801468,150.604660 36.144337,150.604675 
	C34.369858,150.604675 32.595383,150.604675 30.314295,150.604675 
	C30.314295,157.209869 30.314484,163.172318 30.314259,169.134766 
	C30.313784,181.630600 30.289343,194.126526 30.330603,206.622223 
	C30.339924,209.445389 30.142191,212.024506 26.417885,212.968475 
	C24.696037,211.270309 22.217529,209.525528 22.193256,207.747238 
	C21.918135,187.591217 21.960348,167.429581 22.122232,147.271118 
	C22.136112,145.542877 23.210484,143.425919 24.468330,142.162842 
	C59.267586,107.218575 94.128448,72.335381 129.114655,37.578522 
	C130.639359,36.063820 133.446411,35.125359 135.658478,35.121040 
	C201.302475,34.992832 266.946777,35.014565 332.591003,35.019699 
	C341.851288,35.020424 345.908234,39.587906 345.765320,50.819328 
	C345.467682,52.574821 345.351471,53.569202 345.351318,54.563602 
	C345.342499,111.671280 345.341125,168.778946 345.357086,225.886627 
	C345.357452,227.170242 345.565552,228.453796 345.696472,229.965088 
	C351.316315,229.965088 356.631317,229.965088 361.946350,229.965088 
	C368.254211,229.982391 374.562073,229.996475 380.869934,230.017761 
	C390.777679,230.051208 399.209503,236.549011 402.043274,247.091797 
	C402.491821,255.618057 402.898438,263.348816 403.343231,271.805603 
	C408.633362,271.522247 413.854095,271.242615 419.074829,270.963013 
	C430.036194,270.980865 440.997528,271.007202 451.958893,271.014465 
	C465.834198,271.023651 470.926208,274.422913 475.755981,287.882263 
	C475.587250,301.667847 475.745117,314.657623 475.663025,327.645874 
	C475.619659,334.506775 473.138794,340.535065 467.204712,344.283417 
	C464.010651,346.301025 463.402985,348.619080 463.416290,352.043274 
	C463.529999,381.355804 463.438019,410.669098 463.512482,439.981842 
	C463.529694,446.761810 462.124237,452.851288 456.902618,457.602509 
	C452.009827,462.054565 446.117859,462.976288 439.753510,462.973785 
	C308.011749,462.921967 176.269958,462.934387 44.528156,462.938843 
	C42.363937,462.938904 40.199715,462.997986 38.035496,463.029510 
	C31.664284,463.218689 25.509254,462.864044 22.899778,455.565643 
	C22.305321,453.902985 22.053825,452.031342 22.052437,450.255554 
	C22.009502,395.324860 21.976904,340.394012 22.154638,285.463867 
	C22.162331,283.086456 24.177731,280.715546 25.566475,278.157349 
M215.751648,293.126251 
	C215.755524,304.625031 215.659805,316.125000 215.797897,327.622162 
	C215.891815,335.441132 220.476700,339.933777 228.309052,340.109131 
	C233.805801,340.232208 239.319016,340.340118 244.799408,340.019531 
	C246.368484,339.927734 248.447220,338.682434 249.263184,337.340393 
	C252.317551,332.316803 256.475220,329.700195 262.381836,329.759125 
	C269.047150,329.825592 275.714142,329.827698 282.379425,329.761230 
	C288.118011,329.704010 292.506714,332.146667 294.915497,337.232391 
	C296.205597,339.956055 297.951599,340.177551 300.406219,340.173706 
	C327.903381,340.130371 355.400665,340.120026 382.897705,340.189453 
	C385.473480,340.195953 387.032898,339.676849 388.324890,337.083984 
	C390.725220,332.266632 394.921844,329.751465 400.474243,329.778107 
	C407.473236,329.811676 414.518951,329.310059 421.452179,329.986084 
	C424.966125,330.328705 430.078583,331.864777 431.328918,334.405975 
	C434.566376,340.985809 439.680267,340.222992 445.050476,340.153381 
	C448.049683,340.114502 451.050323,340.181427 454.049316,340.134949 
	C462.859497,339.998413 467.402069,335.903351 467.597107,327.001923 
	C467.852295,315.353546 467.568878,303.693390 467.572876,291.211578 
	C465.986664,282.478302 462.298920,279.583374 452.558990,279.581970 
	C378.580383,279.571442 304.601746,279.576355 230.623138,279.577972 
	C229.623657,279.577972 228.621353,279.552582 227.625168,279.615265 
	C220.086761,280.089569 216.012802,284.499573 215.751648,293.126251 
M417.375061,359.008331 
	C412.044006,359.007812 406.712921,358.995056 401.381897,359.010071 
	C395.344788,359.027069 390.984924,356.439331 387.887939,351.164093 
	C387.037445,349.715454 384.720825,348.286011 383.067871,348.275452 
	C355.413483,348.099030 327.757263,348.098938 300.102905,348.277405 
	C298.476105,348.287933 296.226044,349.763855 295.355804,351.212494 
	C292.327972,356.252808 288.139069,358.933258 282.310150,358.990997 
	C275.980011,359.053711 269.645569,358.881989 263.318848,359.042358 
	C256.796326,359.207642 252.179626,356.443970 249.078705,350.777069 
	C248.516464,349.749542 247.382401,348.344269 246.468994,348.311249 
	C240.389526,348.091400 234.298279,348.197266 228.260300,348.197266 
	C228.075546,349.649170 227.919510,350.304169 227.919250,350.959259 
	C227.907288,381.446930 227.858841,411.934753 227.943649,442.422180 
	C227.965210,450.173645 232.957825,454.890228 241.114975,454.896210 
	C308.087952,454.945496 375.061066,454.946381 442.034027,454.895142 
	C450.465210,454.888702 455.198181,450.247101 455.221710,441.966278 
	C455.306458,412.145203 455.263214,382.323730 455.244629,352.502411 
	C455.243896,351.355133 455.341400,350.002838 454.800720,349.101349 
	C453.465363,346.874939 435.437134,347.964691 434.283966,350.385315 
	C431.031708,357.212250 425.458923,359.486267 417.375061,359.008331 
M71.499939,142.653397 
	C88.324944,142.653397 105.149979,142.669174 121.974953,142.645813 
	C128.897827,142.636200 129.870422,141.674545 129.872940,134.966660 
	C129.883087,107.813354 129.881912,80.660049 129.863419,53.506760 
	C129.862610,52.303505 129.651154,51.100399 129.677353,51.378506 
	C99.482918,81.576172 68.869423,112.192932 38.412724,142.652893 
	C48.599564,142.652893 59.549744,142.652893 71.499939,142.653397 
M394.878479,258.574463 
	C394.860413,256.576385 394.975494,254.566589 394.800995,252.582245 
	C394.082520,244.412979 387.843628,238.123199 379.728973,238.074783 
	C354.249481,237.922714 328.768036,237.936523 303.288391,238.076004 
	C296.309479,238.114212 289.849579,243.133942 289.092743,249.849258 
	C288.304932,256.839783 288.917053,263.988037 288.917053,271.583160 
	C291.793304,271.583160 294.585297,271.607574 297.376556,271.573212 
	C298.843048,271.555176 300.308258,271.434174 302.264191,271.334778 
	C302.264191,268.414062 302.105103,265.769104 302.293945,263.149231 
	C302.864990,255.227020 307.677887,249.828110 315.591553,249.662186 
	C332.900696,249.299301 350.227905,249.274338 367.536591,249.638855 
	C375.870697,249.814377 380.708252,255.588303 380.935913,264.042542 
	C381.000977,266.458466 380.945892,268.877686 380.945892,271.256958 
	C385.962219,271.256958 390.219788,271.256958 394.878479,271.256958 
	C394.878479,267.136841 394.878479,263.338074 394.878479,258.574463 
M370.689087,258.738708 
	C362.394958,258.091888 354.100830,257.445038 345.716553,256.791199 
	C345.716553,262.503448 345.716553,266.872528 345.716553,271.223267 
	C355.004211,271.223267 363.865631,271.223267 373.776733,271.223267 
	C372.869141,266.836670 372.088074,263.061523 370.689087,258.738708 
M321.689423,257.370026 
	C310.739563,257.375153 308.997223,259.515869 310.682465,271.202332 
	C319.472260,271.202332 328.296021,271.202332 337.007721,271.202332 
	C337.007721,266.384003 337.007721,262.006378 337.007721,257.370331 
	C331.927887,257.370331 327.282928,257.370331 321.689423,257.370026 
M266.673218,350.994629 
	C271.994537,350.990356 277.318329,351.083862 282.636383,350.950134 
	C286.724854,350.847351 288.623230,348.257233 288.653137,344.449890 
	C288.682648,340.698914 287.043640,337.893158 282.839691,337.829681 
	C275.691559,337.721741 268.505768,337.428558 261.413147,338.069397 
	C259.460754,338.245789 256.681946,341.207153 256.194183,343.329926 
	C254.945572,348.764069 258.048981,350.978210 266.673218,350.994629 
M398.249603,338.138123 
	C394.283020,340.090851 394.075134,343.564514 395.104004,347.089478 
	C396.104309,350.516449 399.080170,351.075897 402.316925,351.020782 
	C408.293610,350.918976 414.274078,351.053040 420.251343,350.971283 
	C425.039642,350.905792 427.150055,348.858826 427.215088,344.494843 
	C427.282471,339.972778 425.318726,337.852844 420.537781,337.804901 
	C413.401154,337.733368 406.262329,337.884186 398.249603,338.138123 
z"/>
<path fill="#E5E6E7" opacity="1.000000" stroke="none" 
	d="
M38.018383,463.466553 
	C40.199715,462.997986 42.363937,462.938904 44.528156,462.938843 
	C176.269958,462.934387 308.011749,462.921967 439.753510,462.973785 
	C446.117859,462.976288 452.009827,462.054565 456.902618,457.602509 
	C462.124237,452.851288 463.529694,446.761810 463.512482,439.981842 
	C463.438019,410.669098 463.529999,381.355804 463.416290,352.043274 
	C463.402985,348.619080 464.010651,346.301025 467.204712,344.283417 
	C473.138794,340.535065 475.619659,334.506775 475.663025,327.645874 
	C475.745117,314.657623 475.587250,301.667847 475.757172,288.243042 
	C484.859314,287.965424 491.968811,298.364105 491.989594,305.153473 
	C492.030914,318.645050 492.094177,332.137695 491.962769,345.628143 
	C491.897156,352.360443 488.221222,357.525635 483.038177,361.154602 
	C480.355682,363.032806 479.961884,364.838379 479.966949,367.591492 
	C480.022461,397.739502 479.892059,427.888184 480.055267,458.035400 
	C480.121246,470.224091 470.798615,479.140381 459.036407,479.123718 
	C323.786682,478.932373 188.536423,478.916565 53.286873,479.165527 
	C42.606728,479.185181 36.795818,473.622894 38.018383,463.466553 
z"/>
<path fill="#E2E2E5" opacity="1.000000" stroke="none" 
	d="
M361.974792,229.500397 
	C356.631317,229.965088 351.316315,229.965088 345.696472,229.965088 
	C345.565552,228.453796 345.357452,227.170242 345.357086,225.886627 
	C345.341125,168.778946 345.342499,111.671280 345.351318,54.563602 
	C345.351471,53.569202 345.467682,52.574821 345.784363,51.246384 
	C358.614288,49.802383 362.154785,56.918800 362.111725,67.301140 
	C361.888123,121.211891 362.004974,175.124054 361.974792,229.500397 
z"/>
<path fill="#3A2C60" opacity="1.000000" stroke="none" 
	d="
M25.647896,221.984131 
	C29.132971,222.227890 30.298571,224.094421 30.295942,226.986404 
	C30.284664,239.394638 30.411566,251.805710 30.131327,264.207672 
	C30.095074,265.812103 27.979431,267.369537 26.438347,268.993256 
	C22.831953,269.265411 22.059841,267.099670 22.047031,264.605804 
	C21.981281,251.804886 21.918169,239.001556 22.161680,226.204910 
	C22.188679,224.786148 24.170542,223.404617 25.647896,221.984131 
z"/>
<path fill="#E2E2E5" opacity="1.000000" stroke="none" 
	d="
M419.044678,270.522644 
	C413.854095,271.242615 408.633362,271.522247 403.343231,271.805603 
	C402.898438,263.348816 402.491821,255.618057 402.060089,247.470764 
	C410.257996,248.085419 418.725952,257.596466 419.002869,266.131348 
	C419.045563,267.447083 419.012512,268.765228 419.044678,270.522644 
z"/>
<path fill="#3F3265" opacity="1.000000" stroke="none" 
	d="
M255.999969,190.774078 
	C222.672409,190.774063 189.844864,190.774094 157.017319,190.774017 
	C156.017502,190.774017 155.017670,190.770096 154.017853,190.772476 
	C151.114380,190.779434 148.341782,190.115189 148.256027,186.695938 
	C148.177322,183.557465 150.608612,182.640732 153.452026,182.707458 
	C154.075439,182.722107 154.704865,182.480988 155.832596,182.259064 
	C155.832596,175.224136 155.983444,168.266037 155.778900,161.318405 
	C155.645325,156.780853 157.556107,154.970810 162.003540,155.070328 
	C168.665726,155.219360 175.334290,155.165909 181.998932,155.090607 
	C185.981537,155.045609 187.813019,156.915421 187.793686,160.847580 
	C187.758667,167.968460 187.783768,175.089645 187.783768,182.469009 
	C190.603180,182.469009 192.880692,182.469009 196.011154,182.469009 
	C196.011154,180.822449 196.011139,179.084015 196.011154,177.345581 
	C196.011322,162.348221 196.000748,147.350861 196.016937,132.353516 
	C196.023453,126.329124 197.022293,125.279282 202.867874,125.236595 
	C209.199753,125.190369 215.533508,125.304428 221.864029,125.200623 
	C226.309219,125.127739 228.088669,127.085403 228.052475,131.563278 
	C227.916611,148.379959 227.998016,165.198395 227.998016,182.376877 
	C230.655106,182.376877 233.050949,182.376877 236.231918,182.376877 
	C236.231918,177.481857 236.231552,172.561737 236.232010,167.641617 
	C236.232742,159.976303 236.307617,152.310013 236.205917,144.646057 
	C236.149841,140.419693 237.980850,138.599899 242.237915,138.702713 
	C248.732941,138.859573 255.234833,138.706940 261.733398,138.750763 
	C267.554138,138.790024 268.169403,139.445938 268.180420,145.549911 
	C268.202301,157.689255 268.186920,169.828674 268.186920,182.351685 
	C271.076904,182.351685 273.603516,182.351685 276.696960,182.351685 
	C276.696960,180.358551 276.696960,178.571259 276.696960,176.783951 
	C276.697113,155.954285 276.686523,135.124619 276.703735,114.294975 
	C276.709076,107.843513 277.437531,107.136078 283.907471,107.112976 
	C289.906311,107.091560 295.905579,107.075630 301.904205,107.118797 
	C307.454803,107.158737 308.597382,108.272865 308.606720,113.908600 
	C308.641510,134.904846 308.620850,155.901169 308.620941,176.897476 
	C308.620941,178.676254 308.620911,180.455032 308.620911,182.396133 
	C310.347809,182.578705 311.716553,182.338745 312.545746,182.898331 
	C313.898743,183.811371 315.768555,185.217270 315.809875,186.468384 
	C315.852905,187.772171 314.230164,189.532654 312.884521,190.356583 
	C311.757233,191.046799 309.980072,190.759506 308.490509,190.761230 
	C291.160339,190.781326 273.830139,190.774109 255.999969,190.774078 
M300.736755,126.526283 
	C300.736755,122.914597 300.736755,119.302910 300.736755,115.555954 
	C295.121033,115.555954 290.126923,115.555954 285.076599,115.555954 
	C285.076599,138.058746 285.076599,160.098969 285.076599,182.823822 
	C288.617096,182.823822 291.913666,182.564209 295.152008,182.887558 
	C299.493774,183.321091 300.904816,181.839035 300.837036,177.363647 
	C300.585358,160.751434 300.736420,144.133102 300.736755,126.526283 
M204.031952,135.845001 
	C204.031952,151.392654 204.031952,166.940323 204.031952,182.428345 
	C209.815125,182.428345 214.719086,182.428345 219.536392,182.428345 
	C219.536392,165.857712 219.536392,149.675476 219.536392,133.187851 
	C215.605881,133.187851 212.113098,133.013947 208.651459,133.266708 
	C207.096100,133.380295 205.603012,134.346771 204.031952,135.845001 
M260.153595,161.503632 
	C260.153595,156.745941 260.153595,151.988251 260.153595,147.120865 
	C254.557739,147.120865 249.666290,147.120865 244.259613,147.120865 
	C244.259613,158.373871 244.207077,169.307602 244.362549,180.238358 
	C244.374557,181.082977 245.811707,182.581223 246.649628,182.627335 
	C251.040771,182.868973 255.452271,182.740295 260.153748,182.740295 
	C260.153748,175.445053 260.153748,168.973907 260.153595,161.503632 
M175.280365,163.108078 
	C171.666672,163.108078 168.052979,163.108078 164.176605,163.108078 
	C164.176605,169.854095 164.176605,176.052185 164.176605,182.779541 
	C168.595459,182.779541 172.726532,182.978104 176.814072,182.643967 
	C177.874146,182.557327 179.578735,180.856735 179.649734,179.807037 
	C179.962936,175.175461 179.994370,170.494400 179.626358,165.871185 
	C179.546356,164.866180 177.401031,164.025574 175.280365,163.108078 
z"/>
<path fill="#3E3063" opacity="1.000000" stroke="none" 
	d="
M180.007721,311.970459 
	C151.982758,354.636810 91.923790,350.488739 69.564034,308.230896 
	C56.682644,283.886292 59.180702,259.909393 76.007057,238.000504 
	C91.463570,217.875198 118.922218,208.969177 143.231552,216.528503 
	C169.266037,224.624329 184.827393,242.477478 189.121338,269.598297 
	C191.509644,284.683075 188.024796,298.668365 180.007721,311.970459 
M75.329773,253.954254 
	C59.352501,288.116119 80.906517,321.813080 104.354347,328.983124 
	C104.818565,327.993286 105.384026,327.001892 105.765129,325.944092 
	C121.900574,281.158295 121.898552,281.157562 121.898506,233.094894 
	C121.898506,230.761917 121.950455,228.427292 121.876801,226.096634 
	C121.837784,224.862259 121.580193,223.634781 121.384918,222.122559 
	C100.467949,224.776169 85.202644,234.810303 75.329773,253.954254 
M180.080414,291.350830 
	C180.574142,288.358704 181.067856,285.366547 181.621948,282.008575 
	C164.362320,282.008575 147.908783,281.916199 131.460800,282.176544 
	C130.083176,282.198395 128.040115,284.349670 127.495506,285.923248 
	C122.611816,300.034271 117.985168,314.234375 113.317101,328.419556 
	C112.930275,329.595032 112.793724,330.852844 112.549324,332.031769 
	C135.930267,339.241455 170.459869,326.504761 180.080414,291.350830 
M145.645370,225.742844 
	C140.604492,224.450958 135.563614,223.159058 130.207916,221.786484 
	C130.207916,239.714447 130.207916,256.621460 130.207916,273.577057 
	C147.366821,273.577057 164.216095,273.577057 181.056168,273.577057 
	C181.211380,254.228943 166.813980,234.647461 145.645370,225.742844 
z"/>
<path fill="#3F3164" opacity="1.000000" stroke="none" 
	d="
M183.743561,126.165833 
	C182.317047,134.580795 177.710159,138.890854 171.023346,138.476669 
	C164.109924,138.048447 159.232620,132.191833 159.917740,125.141151 
	C160.576614,118.360428 166.820633,113.484711 173.815903,115.002548 
	C177.052078,115.704735 178.972733,114.884026 181.174286,112.842819 
	C186.790054,107.636055 192.678375,102.721100 198.235748,97.455200 
	C199.390335,96.361145 200.257996,94.191284 200.108948,92.626678 
	C199.420395,85.398521 203.459717,79.570160 210.365234,78.457611 
	C216.783020,77.423645 222.528900,81.980118 224.022858,88.809013 
	C224.400970,90.537376 225.819870,92.471024 227.322464,93.428215 
	C230.243179,95.288803 233.568710,96.510460 236.714035,98.022820 
	C240.671082,99.925499 244.491547,102.759407 249.017075,99.136993 
	C249.680847,98.605682 251.091064,98.460945 251.920288,98.769844 
	C257.841614,100.975655 261.077240,96.781616 264.730591,93.574738 
	C268.985535,89.839783 273.083466,85.912193 277.495453,82.374985 
	C280.198395,80.207962 281.314240,78.098717 280.894531,74.417122 
	C280.155121,67.931023 284.938110,62.584496 291.148163,61.957462 
	C297.805206,61.285305 303.358673,65.532959 304.360504,72.063049 
	C305.317108,78.298607 301.412476,83.928123 295.077179,85.431343 
	C294.431671,85.584496 293.655426,85.958916 293.134705,85.748497 
	C286.568115,83.095131 283.178406,88.054260 279.176666,91.505623 
	C276.150604,94.115486 273.228638,96.847313 270.174591,99.423180 
	C266.386169,102.618462 263.020966,105.408073 263.868073,111.604759 
	C264.648285,117.311974 259.010712,122.063896 253.062332,122.475945 
	C247.162628,122.884621 241.702438,119.124855 240.820465,113.064804 
	C240.254639,109.176979 238.410736,107.365562 235.099472,106.081680 
	C232.318253,105.003296 229.666992,103.580856 226.986694,102.253212 
	C223.297211,100.425682 219.763657,98.171783 215.626068,101.586815 
	C214.667603,102.377892 212.540283,102.521622 211.291809,102.053589 
	C206.906555,100.409622 204.271713,102.768578 201.412247,105.453445 
	C196.315277,110.239182 191.094711,114.905258 185.734604,119.392952 
	C183.525452,121.242538 182.563477,123.068230 183.743561,126.165833 
M212.458908,94.091721 
	C215.777893,93.276947 216.943237,91.156708 215.181595,88.283974 
	C214.541885,87.240761 212.374527,86.511826 211.055862,86.700386 
	C209.960526,86.857010 208.084793,88.964195 208.303162,89.518333 
	C208.972900,91.217888 210.483582,92.586052 212.458908,94.091721 
M292.406158,69.929634 
	C291.223755,71.385391 289.413696,72.721931 289.105652,74.343765 
	C288.934021,75.247429 291.129089,77.299789 292.506622,77.571388 
	C293.557983,77.778671 296.188812,75.705231 296.053131,75.160103 
	C295.591370,73.305092 294.215179,71.677696 292.406158,69.929634 
M251.084747,114.254616 
	C252.733658,113.335098 254.834305,112.739502 255.829636,111.351357 
	C256.286774,110.713799 254.926712,107.934944 253.734955,107.219704 
	C252.788391,106.651596 250.391586,107.275612 249.435394,108.197090 
	C247.301056,110.253952 248.252960,112.351013 251.084747,114.254616 
M167.919189,127.185921 
	C169.480713,128.242096 170.976227,129.928543 172.630219,130.101807 
	C173.524170,130.195450 175.346329,127.780273 175.511398,126.353638 
	C175.630951,125.320374 173.326447,122.910515 172.778107,123.097244 
	C170.979874,123.709602 169.489929,125.227264 167.919189,127.185921 
z"/>
<path fill="#453668" opacity="1.000000" stroke="none" 
	d="
M117.999825,368.527466 
	C104.024261,368.527435 90.548706,368.535065 77.073174,368.517273 
	C75.582207,368.515289 73.877266,368.790161 72.659264,368.172333 
	C71.374496,367.520569 69.676826,365.894318 69.749512,364.799347 
	C69.844284,363.371735 71.272202,361.730011 72.568047,360.787567 
	C73.481422,360.123322 75.129456,360.378265 76.449570,360.377563 
	C109.389801,360.360229 142.330048,360.363495 175.270279,360.363129 
	C175.436646,360.363129 175.603043,360.361694 175.769379,360.364105 
	C178.702560,360.406464 181.914551,360.494965 181.970047,364.403748 
	C182.025818,368.332764 178.869873,368.524750 175.895691,368.524841 
	C156.763733,368.525421 137.631790,368.526672 117.999825,368.527466 
z"/>
<path fill="#413264" opacity="1.000000" stroke="none" 
	d="
M85.020432,387.159851 
	C114.790337,387.159821 144.063843,387.159515 173.337357,387.160583 
	C174.667877,387.160645 176.256302,386.712402 177.271896,387.281189 
	C179.046127,388.274963 180.468063,389.897675 182.037628,391.256836 
	C180.461502,392.566711 179.026215,394.140228 177.255615,395.086060 
	C176.219238,395.639679 174.648041,395.194641 173.317444,395.194672 
	C141.382706,395.195129 109.447975,395.195099 77.513237,395.194641 
	C76.348961,395.194641 74.961372,395.592896 74.068649,395.099121 
	C72.404587,394.178619 71.028366,392.737701 69.532349,391.513397 
	C71.036858,390.071014 72.361328,387.721039 74.084167,387.379333 
	C77.446342,386.712402 81.031311,387.168640 85.020432,387.159851 
z"/>
<path fill="#3E2F63" opacity="1.000000" stroke="none" 
	d="
M151.000000,414.070068 
	C159.829895,414.070740 168.159866,414.092712 176.489639,414.060669 
	C179.455963,414.049255 182.408630,414.783508 181.769943,418.215942 
	C181.480743,419.770142 178.423218,421.905426 176.609390,421.917328 
	C142.791473,422.138916 108.971718,422.073334 75.152359,422.092163 
	C72.189827,422.093811 69.538239,421.508484 69.698517,417.907837 
	C69.857857,414.328400 72.672638,414.055878 75.531044,414.058319 
	C100.520683,414.079407 125.510345,414.070251 151.000000,414.070068 
z"/>
<path fill="#0089EF" opacity="1.000000" stroke="none" 
	d="
M417.852844,359.008331 
	C425.458923,359.486267 431.031708,357.212250 434.283966,350.385315 
	C435.437134,347.964691 453.465363,346.874939 454.800720,349.101349 
	C455.341400,350.002838 455.243896,351.355133 455.244629,352.502411 
	C455.263214,382.323730 455.306458,412.145203 455.221710,441.966278 
	C455.198181,450.247101 450.465210,454.888702 442.034027,454.895142 
	C375.061066,454.946381 308.087952,454.945496 241.114975,454.896210 
	C232.957825,454.890228 227.965210,450.173645 227.943649,442.422180 
	C227.858841,411.934753 227.907288,381.446930 227.919250,350.959259 
	C227.919510,350.304169 228.075546,349.649170 228.260300,348.197266 
	C234.298279,348.197266 240.389526,348.091400 246.468994,348.311249 
	C247.382401,348.344269 248.516464,349.749542 249.078705,350.777069 
	C252.179626,356.443970 256.796326,359.207642 263.318848,359.042358 
	C269.645569,358.881989 275.980011,359.053711 282.310150,358.990997 
	C288.139069,358.933258 292.327972,356.252808 295.355804,351.212494 
	C296.226044,349.763855 298.476105,348.287933 300.102905,348.277405 
	C327.757263,348.098938 355.413483,348.099030 383.067871,348.275452 
	C384.720825,348.286011 387.037445,349.715454 387.887939,351.164093 
	C390.984924,356.439331 395.344788,359.027069 401.381897,359.010071 
	C406.712921,358.995056 412.044006,359.007812 417.852844,359.008331 
z"/>
<path fill="#6DC8F6" opacity="1.000000" stroke="none" 
	d="
M467.517181,292.038300 
	C467.568878,303.693390 467.852295,315.353546 467.597107,327.001923 
	C467.402069,335.903351 462.859497,339.998413 454.049316,340.134949 
	C451.050323,340.181427 448.049683,340.114502 445.050476,340.153381 
	C439.680267,340.222992 434.566376,340.985809 431.328918,334.405975 
	C430.078583,331.864777 424.966125,330.328705 421.452179,329.986084 
	C414.518951,329.310059 407.473236,329.811676 400.474243,329.778107 
	C394.921844,329.751465 390.725220,332.266632 388.324890,337.083984 
	C387.032898,339.676849 385.473480,340.195953 382.897705,340.189453 
	C355.400665,340.120026 327.903381,340.130371 300.406219,340.173706 
	C297.951599,340.177551 296.205597,339.956055 294.915497,337.232391 
	C292.506714,332.146667 288.118011,329.704010 282.379425,329.761230 
	C275.714142,329.827698 269.047150,329.825592 262.381836,329.759125 
	C256.475220,329.700195 252.317551,332.316803 249.263184,337.340393 
	C248.447220,338.682434 246.368484,339.927734 244.799408,340.019531 
	C239.319016,340.340118 233.805801,340.232208 228.309052,340.109131 
	C220.476700,339.933777 215.891815,335.441132 215.797897,327.622162 
	C215.659805,316.125000 215.755524,304.625031 216.169724,292.504395 
	C220.479401,288.528992 225.046082,287.741791 230.072891,287.746826 
	C303.558563,287.820251 377.044434,287.841034 450.529999,287.716949 
	C456.699768,287.706543 462.438354,288.287415 467.517181,292.038300 
z"/>
<path fill="#F7749D" opacity="1.000000" stroke="none" 
	d="
M70.999931,142.653137 
	C59.549744,142.652893 48.599564,142.652893 38.412724,142.652893 
	C68.869423,112.192932 99.482918,81.576172 129.677353,51.378506 
	C129.651154,51.100399 129.862610,52.303505 129.863419,53.506760 
	C129.881912,80.660049 129.883087,107.813354 129.872940,134.966660 
	C129.870422,141.674545 128.897827,142.636200 121.974953,142.645813 
	C105.149979,142.669174 88.324944,142.653397 70.999931,142.653137 
z"/>
<path fill="#F7FCFE" opacity="1.000000" stroke="none" 
	d="
M467.545044,291.624939 
	C462.438354,288.287415 456.699768,287.706543 450.529999,287.716949 
	C377.044434,287.841034 303.558563,287.820251 230.072891,287.746826 
	C225.046082,287.741791 220.479401,288.528992 216.265518,292.058655 
	C216.012802,284.499573 220.086761,280.089569 227.625168,279.615265 
	C228.621353,279.552582 229.623657,279.577972 230.623138,279.577972 
	C304.601746,279.576355 378.580383,279.571442 452.558990,279.581970 
	C462.298920,279.583374 465.986664,282.478302 467.545044,291.624939 
z"/>
<path fill="#D1F7FC" opacity="1.000000" stroke="none" 
	d="
M394.878479,259.056885 
	C394.878479,263.338074 394.878479,267.136841 394.878479,271.256958 
	C390.219788,271.256958 385.962219,271.256958 380.945892,271.256958 
	C380.945892,268.877686 381.000977,266.458466 380.935913,264.042542 
	C380.708252,255.588303 375.870697,249.814377 367.536591,249.638855 
	C350.227905,249.274338 332.900696,249.299301 315.591553,249.662186 
	C307.677887,249.828110 302.864990,255.227020 302.293945,263.149231 
	C302.105103,265.769104 302.264191,268.414062 302.264191,271.334778 
	C300.308258,271.434174 298.843048,271.555176 297.376556,271.573212 
	C294.585297,271.607574 291.793304,271.583160 288.917053,271.583160 
	C288.917053,263.988037 288.304932,256.839783 289.092743,249.849258 
	C289.849579,243.133942 296.309479,238.114212 303.288391,238.076004 
	C328.768036,237.936523 354.249481,237.922714 379.728973,238.074783 
	C387.843628,238.123199 394.082520,244.412979 394.800995,252.582245 
	C394.975494,254.566589 394.860413,256.576385 394.878479,259.056885 
z"/>
<path fill="#D9D9DE" opacity="1.000000" stroke="none" 
	d="
M370.998047,259.012543 
	C372.088074,263.061523 372.869141,266.836670 373.776733,271.223267 
	C363.865631,271.223267 355.004211,271.223267 345.716553,271.223267 
	C345.716553,266.872528 345.716553,262.503448 345.716553,256.791199 
	C354.100830,257.445038 362.394958,258.091888 370.998047,259.012543 
z"/>
<path fill="#F2CCDC" opacity="1.000000" stroke="none" 
	d="
M322.163696,257.370178 
	C327.282928,257.370331 331.927887,257.370331 337.007721,257.370331 
	C337.007721,262.006378 337.007721,266.384003 337.007721,271.202332 
	C328.296021,271.202332 319.472260,271.202332 310.682465,271.202332 
	C308.997223,259.515869 310.739563,257.375153 322.163696,257.370178 
z"/>
<path fill="#D2F8FD" opacity="1.000000" stroke="none" 
	d="
M266.200623,350.994629 
	C258.048981,350.978210 254.945572,348.764069 256.194183,343.329926 
	C256.681946,341.207153 259.460754,338.245789 261.413147,338.069397 
	C268.505768,337.428558 275.691559,337.721741 282.839691,337.829681 
	C287.043640,337.893158 288.682648,340.698914 288.653137,344.449890 
	C288.623230,348.257233 286.724854,350.847351 282.636383,350.950134 
	C277.318329,351.083862 271.994537,350.990356 266.200623,350.994629 
z"/>
<path fill="#D3FAFE" opacity="1.000000" stroke="none" 
	d="
M398.687012,338.039246 
	C406.262329,337.884186 413.401154,337.733368 420.537781,337.804901 
	C425.318726,337.852844 427.282471,339.972778 427.215088,344.494843 
	C427.150055,348.858826 425.039642,350.905792 420.251343,350.971283 
	C414.274078,351.053040 408.293610,350.918976 402.316925,351.020782 
	C399.080170,351.075897 396.104309,350.516449 395.104004,347.089478 
	C394.075134,343.564514 394.283020,340.090851 398.687012,338.039246 
z"/>
<path fill="#0286EA" opacity="1.000000" stroke="none" 
	d="
M300.736511,127.021683 
	C300.736420,144.133102 300.585358,160.751434 300.837036,177.363647 
	C300.904816,181.839035 299.493774,183.321091 295.152008,182.887558 
	C291.913666,182.564209 288.617096,182.823822 285.076599,182.823822 
	C285.076599,160.098969 285.076599,138.058746 285.076599,115.555954 
	C290.126923,115.555954 295.121033,115.555954 300.736755,115.555954 
	C300.736755,119.302910 300.736755,122.914597 300.736511,127.021683 
z"/>
<path fill="#0187ED" opacity="1.000000" stroke="none" 
	d="
M204.056808,135.385620 
	C205.603012,134.346771 207.096100,133.380295 208.651459,133.266708 
	C212.113098,133.013947 215.605881,133.187851 219.536392,133.187851 
	C219.536392,149.675476 219.536392,165.857712 219.536392,182.428345 
	C214.719086,182.428345 209.815125,182.428345 204.031952,182.428345 
	C204.031952,166.940323 204.031952,151.392654 204.056808,135.385620 
z"/>
<path fill="#6BC4F3" opacity="1.000000" stroke="none" 
	d="
M260.153687,162.003189 
	C260.153748,168.973907 260.153748,175.445053 260.153748,182.740295 
	C255.452271,182.740295 251.040771,182.868973 246.649628,182.627335 
	C245.811707,182.581223 244.374557,181.082977 244.362549,180.238358 
	C244.207077,169.307602 244.259613,158.373871 244.259613,147.120865 
	C249.666290,147.120865 254.557739,147.120865 260.153595,147.120865 
	C260.153595,151.988251 260.153595,156.745941 260.153687,162.003189 
z"/>
<path fill="#6BC2F0" opacity="1.000000" stroke="none" 
	d="
M175.743652,163.108673 
	C177.401031,164.025574 179.546356,164.866180 179.626358,165.871185 
	C179.994370,170.494400 179.962936,175.175461 179.649734,179.807037 
	C179.578735,180.856735 177.874146,182.557327 176.814072,182.643967 
	C172.726532,182.978104 168.595459,182.779541 164.176605,182.779541 
	C164.176605,176.052185 164.176605,169.854095 164.176605,163.108078 
	C168.052979,163.108078 171.666672,163.108078 175.743652,163.108673 
z"/>
<path fill="#0088EE" opacity="1.000000" stroke="none" 
	d="
M75.507477,253.622925 
	C85.202644,234.810303 100.467949,224.776169 121.384918,222.122559 
	C121.580193,223.634781 121.837784,224.862259 121.876801,226.096634 
	C121.950455,228.427292 121.898506,230.761917 121.898506,233.094894 
	C121.898552,281.157562 121.900574,281.158295 105.765129,325.944092 
	C105.384026,327.001892 104.818565,327.993286 104.354347,328.983124 
	C80.906517,321.813080 59.352501,288.116119 75.507477,253.622925 
z"/>
<path fill="#D3FAFE" opacity="1.000000" stroke="none" 
	d="
M180.017441,291.768127 
	C170.459869,326.504761 135.930267,339.241455 112.549324,332.031769 
	C112.793724,330.852844 112.930275,329.595032 113.317101,328.419556 
	C117.985168,314.234375 122.611816,300.034271 127.495506,285.923248 
	C128.040115,284.349670 130.083176,282.198395 131.460800,282.176544 
	C147.908783,281.916199 164.362320,282.008575 181.621948,282.008575 
	C181.067856,285.366547 180.574142,288.358704 180.017441,291.768127 
z"/>
<path fill="#F9759E" opacity="1.000000" stroke="none" 
	d="
M146.013336,225.871002 
	C166.813980,234.647461 181.211380,254.228943 181.056168,273.577057 
	C164.216095,273.577057 147.366821,273.577057 130.207916,273.577057 
	C130.207916,256.621460 130.207916,239.714447 130.207916,221.786484 
	C135.563614,223.159058 140.604492,224.450958 146.013336,225.871002 
z"/>
<path fill="#0383E7" opacity="1.000000" stroke="none" 
	d="
M212.063110,94.087387 
	C210.483582,92.586052 208.972900,91.217888 208.303162,89.518333 
	C208.084793,88.964195 209.960526,86.857010 211.055862,86.700386 
	C212.374527,86.511826 214.541885,87.240761 215.181595,88.283974 
	C216.943237,91.156708 215.777893,93.276947 212.063110,94.087387 
z"/>
<path fill="#0482E5" opacity="1.000000" stroke="none" 
	d="
M292.797119,69.946518 
	C294.215179,71.677696 295.591370,73.305092 296.053131,75.160103 
	C296.188812,75.705231 293.557983,77.778671 292.506622,77.571388 
	C291.129089,77.299789 288.934021,75.247429 289.105652,74.343765 
	C289.413696,72.721931 291.223755,71.385391 292.797119,69.946518 
z"/>
<path fill="#6ABFEE" opacity="1.000000" stroke="none" 
	d="
M250.754639,114.115173 
	C248.252960,112.351013 247.301056,110.253952 249.435394,108.197090 
	C250.391586,107.275612 252.788391,106.651596 253.734955,107.219704 
	C254.926712,107.934944 256.286774,110.713799 255.829636,111.351357 
	C254.834305,112.739502 252.733658,113.335098 250.754639,114.115173 
z"/>
<path fill="#6ABFEE" opacity="1.000000" stroke="none" 
	d="
M167.900330,126.791451 
	C169.489929,125.227264 170.979874,123.709602 172.778107,123.097244 
	C173.326447,122.910515 175.630951,125.320374 175.511398,126.353638 
	C175.346329,127.780273 173.524170,130.195450 172.630219,130.101807 
	C170.976227,129.928543 169.480713,128.242096 167.900330,126.791451 
z"/>
</svg>